<svg aria-hidden="true" style="position: absolute; width: 0; height: 0; overflow: hidden;" version="1.1"
  xmlns="http://www.w3.org/2000/svg" xmlns:xlink="http://www.w3.org/1999/xlink">
  <defs>
    <symbol id="icon-spotify" viewBox="0 0 32 32">
      <path fill="#1ed760"
        d="M16 0c-8.836 0-16 7.163-16 16s7.164 16 16 16 16-7.163 16-16-7.164-16-16-16zM23.807 23.065c-0.244 0.427-0.697 0.71-1.216 0.71-0.25 0-0.484-0.066-0.687-0.18l0.007 0.004c-1.868-1.069-4.065-1.795-6.406-2.033l-0.070-0.006c-0.511-0.055-1.103-0.087-1.702-0.087-1.81 0-3.552 0.288-5.184 0.822l0.118-0.033c-0.114 0.034-0.246 0.053-0.381 0.053-0.769 0-1.392-0.623-1.392-1.392 0-0.602 0.382-1.115 0.917-1.309l0.010-0.003c1.763-0.585 3.792-0.922 5.899-0.922 0.703 0 1.398 0.038 2.082 0.111l-0.085-0.007c2.681 0.273 5.223 1.073 7.555 2.38 0.671 0.373 0.911 1.223 0.536 1.893zM25.721 18.205c-0.236 0.449-0.699 0.75-1.232 0.75-0.236 0-0.458-0.059-0.652-0.162l0.007 0.004c-2.288-1.218-4.961-2.054-7.797-2.346l-0.093-0.008c-0.67-0.073-1.448-0.115-2.235-0.115-2.144 0-4.216 0.31-6.172 0.889l0.154-0.039c-0.116 0.035-0.248 0.055-0.386 0.055-0.768 0-1.391-0.623-1.391-1.391 0-0.631 0.42-1.164 0.995-1.334l0.010-0.002c2.035-0.609 4.374-0.96 6.794-0.96 0.885 0 1.759 0.047 2.619 0.138l-0.107-0.009c3.133 0.32 6.124 1.212 8.895 2.656 0.68 0.355 0.947 1.195 0.589 1.876zM26.415 14.161c-0.226-0-0.439-0.054-0.628-0.149l0.008 0.004c-2.709-1.38-5.867-2.335-9.205-2.68l-0.115-0.010c-0.83-0.091-1.793-0.143-2.767-0.143-2.461 0-4.844 0.332-7.107 0.953l0.188-0.044c-0.095 0.023-0.204 0.036-0.316 0.036-0.769 0-1.392-0.623-1.392-1.392 0-0.627 0.414-1.156 0.983-1.331l0.010-0.003c2.29-0.636 4.92-1.002 7.635-1.002 1.074 0 2.135 0.057 3.18 0.169l-0.13-0.011c3.808 0.389 7.289 1.442 10.445 3.044l-0.169-0.078c0.459 0.234 0.767 0.703 0.767 1.244 0 0.767-0.621 1.389-1.387 1.392h-0z">
      </path>
    </symbol>
    <symbol id="icon-youtube" viewBox="0 0 46 32">
      <path fill="#f00"
        d="M22.856 0c0.069 0 14.304 0.003 17.859 0.957 1.974 0.544 3.497 2.067 4.032 4l0.010 0.040c0.952 3.563 0.955 11.003 0.955 11.003s0 7.44-0.955 11.003c-0.545 1.974-2.068 3.496-4.001 4.031l-0.040 0.009c-3.554 0.954-17.79 0.957-17.859 0.957 0 0-14.296 0-17.859-0.957-1.973-0.544-3.496-2.067-4.030-4l-0.009-0.040c-0.957-3.563-0.957-11.003-0.957-11.003s0-7.44 0.957-11.003c0.544-1.973 2.067-3.496 4-4.030l0.040-0.009c3.563-0.957 17.859-0.957 17.859-0.957zM18.28 22.856l11.878-6.856-11.875-6.854z">
      </path>
    </symbol>
    <symbol id="icon-apple-music" viewBox="0 0 32 32">
      <path fill="#e63e45"
        d="M21.99 0l1.146 0.002q0.482 0 0.966 0.014c0.701 0.020 1.41 0.060 2.102 0.186 0.704 0.126 1.36 0.332 1.998 0.658 1.271 0.656 2.282 1.666 2.922 2.899l0.018 0.037c0.325 0.64 0.53 1.296 0.656 2 0.126 0.694 0.168 1.4 0.186 2.102q0.014 0.482 0.014 0.966l0.002 1.146v11.981l-0.002 1.146q0 0.482-0.016 0.966c-0.021 0.701-0.060 1.408-0.184 2.1-0.13 0.75-0.36 1.421-0.678 2.039l0.018-0.039c-0.657 1.27-1.666 2.279-2.899 2.918l-0.037 0.018c-0.63 0.32-1.304 0.542-2 0.661q-1.044 0.17-2.1 0.184-0.482 0.014-0.966 0.016l-1.146 0.002-13.125-0.002q-0.482 0-0.966-0.016-1.059-0.013-2.104-0.184c-0.749-0.133-1.419-0.363-2.037-0.679l0.041 0.019c-1.271-0.656-2.282-1.666-2.922-2.899l-0.018-0.037c-0.296-0.579-0.525-1.25-0.65-1.957l-0.006-0.043c-0.109-0.625-0.176-1.351-0.186-2.090l-0-0.010q-0.013-0.482-0.017-0.966v-13.126l0.002-1.146q0-0.482 0.014-0.966c0.020-0.7 0.060-1.408 0.186-2.1 0.132-0.75 0.361-1.421 0.676-2.041l-0.019 0.041c0.658-1.27 1.669-2.28 2.902-2.918l0.038-0.018c0.576-0.3 1.245-0.531 1.949-0.656l0.043-0.006c0.628-0.109 1.357-0.175 2.099-0.184l0.009-0q0.48-0.012 0.964-0.016h13.126zM21.776 5.036l-9.516 1.918c-0.227 0.041-0.427 0.134-0.595 0.268l0.003-0.002c-0.172 0.157-0.289 0.373-0.319 0.615l-0.001 0.005c-0.008 0.054-0.020 0.16-0.020 0.32v11.904c0 0.28-0.024 0.55-0.212 0.78-0.19 0.23-0.42 0.3-0.694 0.354l-0.621 0.126c-0.786 0.16-1.3 0.266-1.762 0.446-0.407 0.15-0.753 0.377-1.038 0.666l-0 0c-0.421 0.447-0.679 1.051-0.679 1.715 0 0.097 0.005 0.192 0.016 0.286l-0.001-0.012c0.062 0.594 0.333 1.165 0.79 1.584 0.312 0.284 0.7 0.501 1.156 0.592 0.472 0.094 0.98 0.062 1.716-0.086 0.392-0.080 0.76-0.204 1.11-0.41 0.351-0.209 0.644-0.48 0.87-0.801l0.006-0.009c0.218-0.313 0.38-0.682 0.463-1.081l0.003-0.020c0.067-0.324 0.105-0.697 0.105-1.079 0-0.034-0-0.068-0.001-0.103l0 0.005v-10.326c0-0.552 0.16-0.701 0.604-0.808 0.048-0.010 7.908-1.594 8.276-1.666 0.514-0.098 0.756 0.050 0.756 0.588v7.048c0 0.28-0.002 0.56-0.192 0.792-0.188 0.23-0.422 0.3-0.696 0.356l-0.62 0.124c-0.786 0.16-1.298 0.266-1.76 0.446-0.407 0.15-0.755 0.378-1.040 0.667l-0 0c-0.429 0.451-0.693 1.062-0.693 1.735 0 0.089 0.005 0.177 0.014 0.264l-0.001-0.011c0.071 0.632 0.367 1.184 0.806 1.582l0.002 0.002c0.312 0.288 0.704 0.496 1.138 0.585l0.016 0.003c0.474 0.096 0.981 0.060 1.716-0.088 0.394-0.080 0.762-0.196 1.112-0.405 0.351-0.209 0.644-0.48 0.87-0.801l0.006-0.009q0.346-0.504 0.466-1.098c0.072-0.389 0.102-0.784 0.088-1.178v-15.094c0-0.546-0.286-0.886-0.8-0.84-0.080 0.006-0.766 0.128-0.848 0.146z">
      </path>
    </symbol>


  </defs>
</svg>